<?xml version="1.0" encoding="utf-8"?>
<!-- Generator: Adobe Illustrator 16.0.0, SVG Export Plug-In . SVG Version: 6.00 Build 0)  -->
<!DOCTYPE svg PUBLIC "-//W3C//DTD SVG 1.1//EN" "http://www.w3.org/Graphics/SVG/1.1/DTD/svg11.dtd">
<svg version="1.1" xmlns="http://www.w3.org/2000/svg" xmlns:xlink="http://www.w3.org/1999/xlink" x="0px" y="0px" width="750px"
	 height="500px" viewBox="0 0 750 500" enable-background="new 0 0 750 500" xml:space="preserve">
<g id="Object">
	<g>
		<g>
			<linearGradient id="SVGID_1_" gradientUnits="userSpaceOnUse" x1="358.6123" y1="394.251" x2="358.6123" y2="84.7">
				<stop  offset="0.0019" style="stop-color:#AC24B9"/>
				<stop  offset="1" style="stop-color:#2E2142"/>
			</linearGradient>
			<path fill="url(#SVGID_1_)" d="M526.639,318.116c-0.49,2.83-1.061,5.64-1.71,8.439c-0.5,2.131-1.04,4.25-1.62,6.351
				c-3.22,11.6-7.8,23.19-14.13,33.44c-6.461,10.489-14.761,19.6-25.32,25.939c-5.68,3.42-11.77,5.89-18.1,7.74H250.158
				c-20.85-11.32-39.149-31.24-35.17-54.57c3.46-20.3,6.71-40.55-0.41-59.311c-5.18-13.609-15.37-24.799-21.11-38.189
				c-14.209-33.22,3.66-63.3,30.16-81.75c0.961-0.67,1.931-1.32,2.91-1.96c0.23-0.149,0.471-0.3,0.7-0.45
				c1.08-0.689,2.15-1.41,3.2-2.14c2.279-1.591,4.479-3.261,6.64-5.021h0.011c1.619-1.32,3.209-2.67,4.779-4.07
				c0.37-0.319,0.75-0.649,1.11-0.989c2.16-1.94,4.28-3.94,6.37-5.979c1.1-1.07,2.189-2.16,3.279-3.25
				c8.48-8.511,16.66-17.421,25.62-25.181c8.54-7.39,17.79-13.74,28.69-17.7c6.81-2.47,13.81-4.199,20.88-5.18
				c27.95-3.93,57.03,3.52,79.72,20.9c1.11,0.85,2.221,1.729,3.32,2.629c11.73,9.591,22.52,21.82,27.29,35.94
				c6.01,17.771,14.87,34.92,31.03,45.49c13.33,8.71,25.949,14.49,36.569,27.149c3.83,4.561,7.13,9.371,9.94,14.381
				c2.29,4.09,4.26,8.3,5.92,12.619c2.21,5.75,3.87,11.681,5.03,17.73C529.599,286.446,529.358,302.486,526.639,318.116z"/>
			<linearGradient id="SVGID_2_" gradientUnits="userSpaceOnUse" x1="205.6304" y1="391.1875" x2="188.7369" y2="284.7585">
				<stop  offset="0.0019" style="stop-color:#AC24B9"/>
				<stop  offset="1" style="stop-color:#2E2142"/>
			</linearGradient>
			<path fill="url(#SVGID_2_)" d="M191.064,354.138c-0.334,5.895,0.02,12.09,2.975,17.2c2.479,4.288,8.288,7.575,12.306,4.677
				c3.049-2.2,3.268-6.719,2.249-10.339c-1.018-3.619-2.964-7.018-3.241-10.767c-0.437-5.902,6.546-21.025-3.941-21.707
				C191.962,332.587,191.394,348.312,191.064,354.138z"/>
			<g>
				<linearGradient id="SVGID_3_" gradientUnits="userSpaceOnUse" x1="269.2764" y1="393.4268" x2="272.4984" y2="349.1977">
					<stop  offset="0" style="stop-color:#FFFFFF;stop-opacity:0"/>
					<stop  offset="1" style="stop-color:#662D8D"/>
				</linearGradient>
				<ellipse opacity="0.8" fill="url(#SVGID_3_)" cx="270.618" cy="375.019" rx="20.336" ry="8.012"/>
				<linearGradient id="SVGID_4_" gradientUnits="userSpaceOnUse" x1="373.0313" y1="394.4834" x2="376.2532" y2="350.2543">
					<stop  offset="0" style="stop-color:#FFFFFF;stop-opacity:0"/>
					<stop  offset="1" style="stop-color:#662D8D"/>
				</linearGradient>
				<ellipse opacity="0.8" fill="url(#SVGID_4_)" cx="374.373" cy="376.075" rx="20.336" ry="8.012"/>
				<linearGradient id="SVGID_5_" gradientUnits="userSpaceOnUse" x1="381.0918" y1="346.5996" x2="236.9747" y2="344.8421">
					<stop  offset="0" style="stop-color:#FFFFFF;stop-opacity:0"/>
					<stop  offset="1" style="stop-color:#662D8D"/>
				</linearGradient>
				<polygon opacity="0.8" fill="url(#SVGID_5_)" points="257.121,339.745 275.511,339.745 316.385,358.777 311.042,370.828 
					330.185,370.828 371.768,345.038 320.859,327.23 290.606,320.412 				"/>
				<linearGradient id="SVGID_6_" gradientUnits="userSpaceOnUse" x1="339.3594" y1="202.2441" x2="261.442" y2="289.5349">
					<stop  offset="0" style="stop-color:#FFFFFF;stop-opacity:0"/>
					<stop  offset="1" style="stop-color:#662D8D"/>
				</linearGradient>
				<rect x="260.905" y="200.622" opacity="0.8" fill="url(#SVGID_6_)" width="100.787" height="66.115"/>
				<linearGradient id="SVGID_7_" gradientUnits="userSpaceOnUse" x1="578.0254" y1="333.2861" x2="412.4907" y2="333.2861">
					<stop  offset="0" style="stop-color:#FFFFFF;stop-opacity:0"/>
					<stop  offset="1" style="stop-color:#662D8D"/>
				</linearGradient>
				<path opacity="0.8" fill="url(#SVGID_7_)" d="M526.639,300.226v17.891c-0.49,2.83-1.061,5.64-1.71,8.439
					c-0.5,2.131-1.04,4.25-1.62,6.351c-3.22,11.6-7.8,23.19-14.13,33.44h-52.681v-66.121H526.639z"/>
				<linearGradient id="SVGID_8_" gradientUnits="userSpaceOnUse" x1="553.8105" y1="283.666" x2="377.4072" y2="283.666">
					<stop  offset="0" style="stop-color:#FFFFFF;stop-opacity:0"/>
					<stop  offset="1" style="stop-color:#662D8D"/>
				</linearGradient>
				<path opacity="0.8" fill="url(#SVGID_8_)" d="M526.639,271.126v46.99c-0.49,2.83-1.061,5.64-1.71,8.439h-146.98v-85.779h137.74
					c2.29,4.09,4.26,8.3,5.92,12.619C523.818,259.146,525.479,265.076,526.639,271.126z"/>
				<g>
					<path fill="#CBDFEF" d="M410.922,305.69v-47.202H305.407v47.204l0,0c0,7.795,5.15,15.59,15.452,21.538
						c20.603,11.896,54.007,11.896,74.61,0C405.771,321.282,410.922,313.486,410.922,305.69z"/>
					<linearGradient id="SVGID_9_" gradientUnits="userSpaceOnUse" x1="350.2939" y1="297.3203" x2="429.613" y2="297.3203">
						<stop  offset="0" style="stop-color:#FFFFFF;stop-opacity:0"/>
						<stop  offset="1" style="stop-color:#662D8D"/>
					</linearGradient>
					<path opacity="0.8" fill="url(#SVGID_9_)" d="M410.922,305.69v-47.202H305.407v47.204l0,0c0,7.795,5.15,15.59,15.452,21.538
						c20.603,11.896,54.007,11.896,74.61,0C405.771,321.282,410.922,313.486,410.922,305.69z"/>
					<path fill="#FFFFFF" d="M395.47,280.027c-20.604,11.896-54.008,11.896-74.61,0c-20.604-11.896-20.604-31.181,0-43.076
						c20.603-11.896,54.007-11.896,74.61,0C416.072,248.847,416.072,268.133,395.47,280.027z"/>
					<g>
						<linearGradient id="SVGID_10_" gradientUnits="userSpaceOnUse" x1="358.1641" y1="203.6396" x2="358.1641" y2="308.0846">
							<stop  offset="0.0017" style="stop-color:#00D4C8"/>
							<stop  offset="1" style="stop-color:#00D2C7;stop-opacity:0"/>
						</linearGradient>
						<path fill="url(#SVGID_10_)" d="M395.47,274.113c-20.604,11.895-54.008,11.896-74.61-0.001
							c-20.604-11.895-20.604-31.181,0-43.075c20.603-11.896,54.007-11.896,74.61,0C416.072,242.933,416.072,262.218,395.47,274.113
							z"/>
						<g>
							
								<ellipse id="XMLID_914_" transform="matrix(0.9994 0.0336 -0.0336 0.9994 8.3757 -11.8951)" fill="#809297" cx="357.779" cy="243.027" rx="13.256" ry="9.967"/>
							<linearGradient id="XMLID_2_" gradientUnits="userSpaceOnUse" x1="344.5273" y1="243.0273" x2="371.0313" y2="243.0273">
								<stop  offset="0.0039" style="stop-color:#FFFFFF;stop-opacity:0"/>
								<stop  offset="1" style="stop-color:#92A7AC"/>
							</linearGradient>
							<path id="XMLID_913_" fill="url(#XMLID_2_)" d="M371.027,243.473c-0.186,5.501-6.267,9.762-13.583,9.516
								s-13.098-4.905-12.913-10.407c0.186-5.501,6.267-9.762,13.583-9.516S371.212,237.971,371.027,243.473z"/>
							
								<ellipse id="XMLID_912_" transform="matrix(0.9994 0.0336 -0.0336 0.9994 7.9615 -11.907)" fill="#8A9EA2" cx="358.188" cy="230.883" rx="21.634" ry="12.15"/>
							<linearGradient id="XMLID_3_" gradientUnits="userSpaceOnUse" x1="350.7734" y1="230.8828" x2="375.8354" y2="230.8828">
								<stop  offset="0.0039" style="stop-color:#FFFFFF;stop-opacity:0"/>
								<stop  offset="1" style="stop-color:#92A7AC"/>
							</linearGradient>
							<path id="XMLID_907_" fill="url(#XMLID_3_)" d="M379.81,231.61c-0.226,6.707-10.089,11.818-22.03,11.416
								c-11.941-0.401-21.439-6.164-21.214-12.87c0.226-6.707,10.089-11.818,22.03-11.417
								C370.538,219.142,380.035,224.903,379.81,231.61z"/>
							
								<ellipse id="XMLID_906_" transform="matrix(0.9994 0.0336 -0.0336 0.9994 7.7092 -11.9197)" fill="#92A7AC" cx="358.44" cy="223.371" rx="21.634" ry="12.151"/>
							<linearGradient id="XMLID_4_" gradientUnits="userSpaceOnUse" x1="346.8115" y1="223.3711" x2="376.9678" y2="223.3711">
								<stop  offset="0.0039" style="stop-color:#FFFFFF;stop-opacity:0"/>
								<stop  offset="1" style="stop-color:#92A7AC"/>
							</linearGradient>
							<path id="XMLID_905_" fill="url(#XMLID_4_)" d="M380.063,224.098c-0.226,6.707-10.089,11.818-22.03,11.417
								c-11.941-0.402-21.439-6.164-21.214-12.871s10.089-11.818,22.03-11.416C370.79,211.629,380.288,217.392,380.063,224.098z"/>
							
								<ellipse id="XMLID_904_" transform="matrix(0.4463 0.8949 -0.8949 0.4463 388.6994 -179.2981)" opacity="0.1" fill="#FFFFFF" cx="339.236" cy="224.449" rx="1.883" ry="1.207"/>
							
								<ellipse id="XMLID_897_" transform="matrix(0.4461 0.895 -0.895 0.4461 392.292 -179.2191)" opacity="0.1" fill="#FFFFFF" cx="340.933" cy="227.314" rx="0.693" ry="0.798"/>
							
								<ellipse id="XMLID_896_" transform="matrix(0.4464 0.8948 -0.8948 0.4464 395.9272 -174.8891)" opacity="0.1" fill="#FFFFFF" cx="339.305" cy="232.535" rx="1.883" ry="1.208"/>
							
								<ellipse id="XMLID_895_" transform="matrix(0.4455 0.8953 -0.8953 0.4455 399.8256 -174.7648)" opacity="0.1" fill="#FFFFFF" cx="341.002" cy="235.401" rx="0.694" ry="0.798"/>
							<path id="XMLID_894_" fill="#FDC870" d="M397.515,172.679c0.139-21.802-17.39-36.297-39.123-36.435
								s-39.443,14.135-39.581,35.937c-0.135,21.357,10.779,24.588,16.349,35.574c1.742,3.437,1.104,6.487,1.104,6.487
								c-0.053,8.295,8.971,12.987,21.552,13.066c12.581,0.08,21.663-4.497,21.716-12.792c0,0-0.599-3.06,1.187-6.474
								C386.426,197.128,397.38,194.036,397.515,172.679z"/>
							<linearGradient id="SVGID_11_" gradientUnits="userSpaceOnUse" x1="349.0498" y1="167.5479" x2="383.176" y2="207.9304">
								<stop  offset="0.0039" style="stop-color:#FFFFFF;stop-opacity:0"/>
								<stop  offset="1" style="stop-color:#FDC870"/>
							</linearGradient>
							<path fill="url(#SVGID_11_)" d="M397.519,172.679c-0.009,1.333-0.057,2.593-0.146,3.796c-0.065,0.91-0.163,1.796-0.276,2.642
								c-0.569,4.332-1.69,7.738-3.113,10.607c-0.032,0.057-0.057,0.113-0.081,0.171c-3.609,7.12-9.12,10.892-12.77,17.403
								c-0.146,0.243-0.285,0.495-0.415,0.747c-1.788,3.414-1.187,6.47-1.187,6.47c0,0.326-0.017,0.65-0.057,0.968
								c-0.009,0.146-0.025,0.293-0.049,0.431c0,0.073-0.017,0.146-0.033,0.22c-0.016,0.138-0.04,0.276-0.073,0.406
								c-0.024,0.138-0.049,0.276-0.089,0.415c-0.041,0.187-0.098,0.382-0.154,0.561c0,0.016-0.009,0.032-0.017,0.049
								c-0.162,0.521-0.366,1.016-0.618,1.495c-0.008,0.033-0.024,0.058-0.04,0.09c-2.146,4.097-7.21,6.738-13.957,7.722
								c-2.056,0.31-4.283,0.455-6.624,0.439c-12.583-0.081-21.605-4.771-21.557-13.07c0,0,0.642-3.049-1.105-6.486
								c-5.568-10.982-16.484-14.217-16.347-35.57c0.139-21.801,17.851-36.074,39.577-35.936
								C380.123,136.385,397.656,150.878,397.519,172.679z"/>
							
								<linearGradient id="XMLID_5_" gradientUnits="userSpaceOnUse" x1="389.1406" y1="192.1396" x2="389.1406" y2="211.8318" gradientTransform="matrix(0.9996 -0.0273 0.0273 0.9996 -36.759 -18.9817)">
								<stop  offset="0.0039" style="stop-color:#FFFFFF;stop-opacity:0"/>
								<stop  offset="1" style="stop-color:#FDC870"/>
							</linearGradient>
							<path id="XMLID_828_" fill="url(#XMLID_5_)" d="M370.618,191.546c-0.689-4.14-5.34-9.62-8.75-4.23
								c-2.359,3.73-2.109,8.951-2.109,13.311v0.27c-0.391,0.03-0.78,0.051-1.16,0.061c-0.12,0-0.221,0.02-0.311,0.05
								c-0.09-0.03-0.189-0.05-0.31-0.06c-0.38-0.01-0.761-0.03-1.15-0.07v-0.25c0.061-3.77,0.07-7.63-1.069-11.22
								c-1.791-5.67-7.03-5.42-9.101-0.091c-1.97,5.08-0.13,8.99,3.351,11.311c1.369,0.91,3,1.58,4.75,1.971
								c0,0.1-0.011,0.199-0.011,0.289c-0.02,2.811-0.03,5.62-0.05,8.43c-0.02,2.5-0.03,5-0.05,7.5
								c-0.01,1.131-0.01,2.25-0.021,3.371c-0.01,1.67-0.02,3.33-0.029,4.989c0.67,0.05,1.359,0.091,2.05,0.11
								c0.01-1.721,0.02-3.43,0.03-5.15c0.01-1.14,0.02-2.27,0.029-3.41c0.01-2.5,0.03-5.01,0.051-7.51
								c0.01-2.76,0.029-5.529,0.05-8.29c0.38,0.04,0.77,0.07,1.159,0.08c0.11,0,0.211-0.01,0.311-0.04
								c0.09,0.03,0.189,0.051,0.3,0.04c0.39,0,0.78-0.03,1.17-0.06c-0.02,2.77-0.04,5.55-0.05,8.32c-0.02,2.51-0.04,5.01-0.05,7.52
								c-0.01,1.12-0.021,2.23-0.021,3.35c-0.01,0.26-0.01,0.53-0.01,0.79c-0.01,1.45-0.02,2.89-0.029,4.351v0.01
								c0.01,0,0.01,0,0.02,0s0.01,0,0.02,0c0.021,0,0.03,0,0.051-0.01c0.01,0.01,0.02,0,0.029,0h0.141
								c0.229-0.01,0.449-0.021,0.67-0.03c0.199-0.01,0.39-0.021,0.58-0.03c0.189-0.01,0.369-0.029,0.55-0.04
								c0.01-1.659,0.02-3.329,0.03-4.989c0-0.49,0.01-0.98,0.01-1.471c0-0.58,0.01-1.17,0.01-1.75c0.02-2.51,0.03-5.02,0.05-7.529
								c0.011-2.83,0.03-5.67,0.05-8.5v-0.271C367.248,201.597,371.688,197.986,370.618,191.546z M347.958,193.366
								c-0.02-2.27,2.301-9.07,5.141-5.07c2.189,3.09,1.89,8.12,1.72,12.28C351.148,199.806,347.998,197.726,347.958,193.366z
								 M361.769,200.626c-0.12-4.17-0.36-9.2,1.87-12.26c2.899-3.971,5.13,2.859,5.079,5.13
								C368.618,197.856,365.438,199.896,361.769,200.626z"/>
							
								<linearGradient id="SVGID_12_" gradientUnits="userSpaceOnUse" x1="402.2041" y1="208.1816" x2="372.0516" y2="157.5255" gradientTransform="matrix(0.9996 -0.0273 0.0273 0.9996 -36.759 -18.9817)">
								<stop  offset="0.0039" style="stop-color:#FFFFFF;stop-opacity:0"/>
								<stop  offset="1" style="stop-color:#FFFFFF"/>
							</linearGradient>
							<path fill="url(#SVGID_12_)" d="M377.108,167.275c-10.596,6.509-28.049,6.985-38.983,1.063
								c-10.935-5.921-11.21-15.997-0.614-22.506c10.595-6.51,28.049-6.986,38.982-1.064
								C387.429,150.689,387.703,160.767,377.108,167.275z"/>
							<linearGradient id="SVGID_13_" gradientUnits="userSpaceOnUse" x1="337.3457" y1="192.8418" x2="304.7577" y2="177.0602">
								<stop  offset="0.0039" style="stop-color:#FFFFFF;stop-opacity:0"/>
								<stop  offset="1" style="stop-color:#FFFFFF"/>
							</linearGradient>
							<path fill="url(#SVGID_13_)" d="M324.266,183.623c1.839,5.333,5.273,10.226,8.907,14.343c3.8,4.306,8.365,8.578,9.151,14.267
								c0.11,0.793,0.149,1.624,0.536,2.324s1.269,1.215,1.995,0.88c0.374-0.172,0.627-0.524,0.845-0.874
								c1.553-2.497,2.097-5.601,1.487-8.478c-0.981-4.632-4.562-7.992-7.555-11.417c-2.907-3.327-5.386-7.595-6.315-11.955
								c-0.584-2.74-0.762-5.555-1.354-8.293c-0.281-1.307-0.672-2.624-1.461-3.703c-0.79-1.079-2.047-1.893-3.383-1.85
								c-1.423,0.046-2.685,1.057-3.36,2.309c-0.677,1.252-0.854,2.712-0.882,4.135
								C322.822,178.164,323.343,180.948,324.266,183.623z"/>
							<linearGradient id="SVGID_14_" gradientUnits="userSpaceOnUse" x1="353.3975" y1="227.0986" x2="381.1662" y2="212.1462">
								<stop  offset="0.0039" style="stop-color:#FFFFFF;stop-opacity:0"/>
								<stop  offset="1" style="stop-color:#FDC870"/>
							</linearGradient>
							<path fill="url(#SVGID_14_)" d="M397.519,172.679c0,1.324-0.049,2.584-0.146,3.796c-0.065,0.91-0.163,1.796-0.276,2.642
								c-0.577,4.17-1.699,7.633-3.113,10.607c-0.032,0.057-0.057,0.113-0.081,0.171c-3.609,7.12-9.12,10.892-12.77,17.403
								c-0.146,0.243-0.285,0.495-0.415,0.747c-1.788,3.414-1.187,6.47-1.187,6.47c0,0.326-0.017,0.65-0.057,0.968
								c-0.009,0.146-0.025,0.293-0.049,0.431c0,0.073-0.017,0.146-0.033,0.22c-0.016,0.138-0.04,0.276-0.073,0.406
								c-0.024,0.138-0.049,0.276-0.089,0.415c-0.041,0.187-0.098,0.382-0.154,0.561c0,0.016-0.009,0.032-0.017,0.049
								c-0.162,0.521-0.366,1.016-0.618,1.495c-0.008,0.033-0.024,0.058-0.04,0.09c1.122,1.536,1.723,3.211,1.666,4.95
								c-0.049,1.309-0.464,2.561-1.187,3.723c0.643,1.203,0.976,2.479,0.927,3.788c-0.13,4.007-3.698,7.438-9.096,9.47
								c0.228,0.771,0.341,1.568,0.316,2.39c-0.187,5.503-6.267,9.762-13.582,9.519c-0.415-0.017-0.821-0.041-1.228-0.09
								c1.585-1.91,3.382-3.739,4.292-5.544c3.162-6.274,3.561-13.591,3.934-20.483c0.009-0.13,0.017-0.26,0.024-0.39
								c0.317-5.812,0.635-11.616,0.951-17.419c0.032-0.578,0.073-1.171,0.293-1.699c0.683-1.585,2.697-1.945,4.381-2.341
								C388.469,200.701,395.944,187.063,397.519,172.679z"/>
							<circle fill="#FDC870" cx="392.365" cy="130.882" r="3.515"/>
							<circle fill="#FDC870" cx="392.365" cy="228.03" r="3.515"/>
							<circle fill="#FDC870" cx="328.688" cy="212.838" r="3.515"/>
							<circle fill="#FDC870" cx="399.734" cy="120.494" r="2.218"/>
							<circle fill="#FDC870" cx="395.879" cy="208.153" r="2.218"/>
							<circle fill="#FDC870" cx="334.421" cy="119.197" r="2.218"/>
							<circle fill="#FDC870" cx="401.953" cy="235.536" r="2.218"/>
							<circle fill="#FDC870" cx="322.874" cy="246.911" r="2.219"/>
						</g>
						<g>
							<linearGradient id="SVGID_15_" gradientUnits="userSpaceOnUse" x1="272.5723" y1="201.1162" x2="366.1096" y2="201.1162">
								<stop  offset="0.0017" style="stop-color:#00D4C8"/>
								<stop  offset="1" style="stop-color:#00D2C7;stop-opacity:0"/>
							</linearGradient>
							<path opacity="0.7" fill="url(#SVGID_15_)" d="M410.922,252.573V119.197c0,7.796-5.151,15.591-15.452,21.538
								c-20.604,11.896-54.008,11.895-74.61,0c-10.302-5.947-15.452-13.742-15.452-21.538v133.378l0,0
								c0,7.795,5.15,15.59,15.452,21.537c20.603,11.896,54.007,11.896,74.61,0.001
								C405.771,268.165,410.922,260.369,410.922,252.573z"/>
							<linearGradient id="SVGID_16_" gradientUnits="userSpaceOnUse" x1="432.5078" y1="201.1162" x2="366.8513" y2="201.1162">
								<stop  offset="0.0017" style="stop-color:#00D4C8"/>
								<stop  offset="1" style="stop-color:#00D2C7;stop-opacity:0"/>
							</linearGradient>
							<path opacity="0.7" fill="url(#SVGID_16_)" d="M410.922,252.573V119.197c0,7.796-5.151,15.591-15.452,21.538
								c-20.604,11.896-54.008,11.895-74.61,0c-10.302-5.947-15.452-13.742-15.452-21.538v133.378l0,0
								c0,7.795,5.15,15.59,15.452,21.537c20.603,11.896,54.007,11.896,74.61,0.001
								C405.771,268.165,410.922,260.369,410.922,252.573z"/>
							<linearGradient id="SVGID_17_" gradientUnits="userSpaceOnUse" x1="358.1641" y1="70.2627" x2="358.1641" y2="174.7076">
								<stop  offset="0.0017" style="stop-color:#00D4C8"/>
								<stop  offset="1" style="stop-color:#00D2C7;stop-opacity:0"/>
							</linearGradient>
							<path fill="url(#SVGID_17_)" d="M395.47,140.735c-20.604,11.896-54.008,11.896-74.61,0
								c-20.604-11.895-20.604-31.181,0-43.076c20.603-11.895,54.007-11.895,74.61,0
								C416.072,109.555,416.072,128.841,395.47,140.735z"/>
						</g>
					</g>
					<path fill="#FFFFFF" d="M313.307,204.345L313.307,204.345c-2.225-1.285-3.596-3.659-3.596-6.229v-48.505
						c0-1.066,1.154-1.732,2.078-1.199l0,0c2.282,1.317,3.688,3.753,3.688,6.39v48.289
						C315.478,204.205,314.271,204.901,313.307,204.345z"/>
					<path fill="#FFFFFF" d="M313.307,226.167L313.307,226.167c-2.225-1.285-3.596-3.659-3.596-6.229v-6.891
						c0-1.066,1.154-1.732,2.078-1.199l0,0c2.282,1.317,3.688,3.754,3.688,6.39v6.675
						C315.478,226.027,314.271,226.724,313.307,226.167z"/>
				</g>
				<g>
					<path fill="#CBDFEF" d="M492.601,345.874v-31.916h-71.343v31.916l0,0c0,5.271,3.483,10.542,10.448,14.563
						c13.931,8.042,36.517,8.042,50.447,0C489.118,356.415,492.601,351.145,492.601,345.874z"/>
					<linearGradient id="SVGID_18_" gradientUnits="userSpaceOnUse" x1="451.6074" y1="340.2129" x2="505.2383" y2="340.2129">
						<stop  offset="0" style="stop-color:#FFFFFF;stop-opacity:0"/>
						<stop  offset="1" style="stop-color:#662D8D"/>
					</linearGradient>
					<path opacity="0.8" fill="url(#SVGID_18_)" d="M492.601,345.874v-31.916h-71.343v31.916l0,0
						c0,5.271,3.483,10.542,10.448,14.563c13.931,8.042,36.517,8.042,50.447,0C489.118,356.415,492.601,351.145,492.601,345.874z"/>
					<path fill="#FFFFFF" d="M482.153,328.521c-13.931,8.043-36.517,8.043-50.447,0s-13.931-21.083,0-29.126
						c13.931-8.042,36.516-8.042,50.446,0C496.083,307.438,496.083,320.479,482.153,328.521z"/>
					<g>
						<linearGradient id="SVGID_19_" gradientUnits="userSpaceOnUse" x1="456.9297" y1="276.873" x2="456.9297" y2="347.4919">
							<stop  offset="0.0017" style="stop-color:#00D4C8"/>
							<stop  offset="1" style="stop-color:#00D2C7;stop-opacity:0"/>
						</linearGradient>
						<path fill="url(#SVGID_19_)" d="M482.153,324.522c-13.931,8.043-36.517,8.043-50.447,0s-13.931-21.083,0-29.125
							c13.931-8.043,36.516-8.043,50.446,0S496.083,316.479,482.153,324.522z"/>
						<g>
							<circle fill="#FDC870" cx="480.155" cy="252.575" r="2.376"/>
							<circle fill="#FDC870" cx="477.778" cy="303.754" r="2.376"/>
							<circle fill="#FDC870" cx="436.999" cy="285.469" r="2.377"/>
							<circle fill="#FDC870" cx="475.401" cy="242.523" r="1.5"/>
							<circle fill="#FDC870" cx="468.714" cy="309.96" r="1.5"/>
							<circle fill="#FDC870" cx="436.732" cy="240.373" r="1.5"/>
							<circle fill="#FDC870" cx="486.536" cy="284.398" r="1.5"/>
							<circle fill="#FDC870" cx="433.068" cy="306.131" r="1.5"/>
							<g>
								<path fill="#FFB300" d="M479.307,278.644c0,0.109,0,0.233-0.014,0.344c-0.014,1.405-0.138,2.714-0.372,3.912
									c-0.138,0.73-0.316,1.419-0.537,2.066c-0.909,2.77-2.466,4.85-4.49,6.13l0.014,0.015l-0.18,0.109
									c-0.11,0.055-0.221,0.124-0.344,0.193l-5.511,3.195l-1.239-2.135c-2.149-0.303-4.478-1.102-6.93-2.521
									c-10.827-6.239-19.588-21.447-19.588-33.942c0-1.268,0.096-2.452,0.275-3.554c0.109-0.703,0.262-1.378,0.427-2.012
									c0.151-0.523,0.316-1.02,0.496-1.501l-1.295-2.231l5.565-3.21c0.192-0.11,0.371-0.221,0.564-0.317l0.303-0.179l0.014,0.027
									c2.26-1.088,5.015-1.308,8.072-0.51c0.634,0.165,1.295,0.372,1.957,0.634c1.047,0.399,2.121,0.909,3.209,1.543
									c0.083,0.041,0.166,0.097,0.248,0.151c0.482,0.275,0.965,0.593,1.446,0.923c0.937,0.62,1.874,1.323,2.77,2.095
									c0.399,0.344,0.813,0.688,1.198,1.061c0.799,0.729,1.57,1.515,2.328,2.342c0.344,0.372,0.688,0.771,1.02,1.171
									c0.702,0.813,1.363,1.653,2.011,2.521c0.289,0.413,0.593,0.827,0.868,1.254c0.605,0.868,1.185,1.776,1.722,2.7
									c0.262,0.44,0.523,0.881,0.758,1.322c0.523,0.937,1.005,1.887,1.446,2.852c0.221,0.468,0.427,0.923,0.62,1.391
									c0.427,1.006,0.813,2.012,1.157,3.018c0.179,0.496,0.33,0.992,0.482,1.487c0.33,1.075,0.605,2.149,0.813,3.21
									c0.124,0.523,0.221,1.061,0.303,1.584c0.193,1.171,0.316,2.328,0.372,3.472C479.293,277.72,479.307,278.188,479.307,278.644
									z"/>
								<g>
									<path fill="#FFA000" d="M456.495,243.157l-16.104,9.299l-1.309,0.758l-0.4-1.529l2.136-1.24l13.72-7.921
										C455.172,242.688,455.833,242.896,456.495,243.157z"/>
									<path fill="#FFA000" d="M461.398,245.774l-19.52,11.269l-0.399-1.529l18.473-10.662
										C460.435,245.127,460.917,245.444,461.398,245.774z"/>
									<path fill="#FFA000" d="M465.366,248.93l-20.69,11.943l-0.386-1.529l19.878-11.475
										C464.567,248.213,464.98,248.558,465.366,248.93z"/>
									<path fill="#FFA000" d="M468.714,252.442l-21.229,12.246l-0.399-1.529l20.608-11.888
										C468.038,251.644,468.383,252.042,468.714,252.442z"/>
									<path fill="#FFA000" d="M471.593,256.217l-21.311,12.301l-0.386-1.528l20.828-12.026
										C471.014,255.376,471.317,255.79,471.593,256.217z"/>
									<path fill="#FFA000" d="M474.072,260.239l-20.98,12.108l-0.399-1.529l20.622-11.901
										C473.576,259.357,473.838,259.798,474.072,260.239z"/>
									<path fill="#FFA000" d="M476.139,264.481l-20.25,11.695l-0.399-1.528l20.029-11.558
										C475.739,263.559,475.945,264.014,476.139,264.481z"/>
									<path fill="#FFA000" d="M477.778,268.986l-19.094,11.021l-0.385-1.529l18.996-10.979
										C477.475,267.995,477.626,268.491,477.778,268.986z"/>
									<path fill="#FFA000" d="M478.894,273.78l-17.398,10.057l-0.399-1.529l17.495-10.111
										C478.715,272.72,478.812,273.257,478.894,273.78z"/>
									<path fill="#FFA000" d="M479.307,278.644c0,0.109,0,0.233-0.014,0.344l-15.001,8.665l-0.399-1.529l15.373-8.871
										C479.293,277.72,479.307,278.188,479.307,278.644z"/>
									<path fill="#FFA000" d="M478.921,282.899c-0.138,0.73-0.316,1.419-0.537,2.066l-11.296,6.516l-0.386-1.529L478.921,282.899
										z"/>
								</g>
								<path fill="#FFCA28" d="M473.743,281.85c0,12.497-8.772,17.562-19.596,11.313c-10.822-6.248-19.596-21.443-19.596-33.94
									s8.773-17.563,19.596-11.313C464.971,254.157,473.743,269.354,473.743,281.85z"/>
								<path fill="#FFB300" d="M457.729,254.926c-0.681,0.011-1.37,0.011-2.05,0c0.739,0.63,1.47,1.311,2.16,2.04l1.22-0.71
									C458.628,255.796,458.179,255.347,457.729,254.926z M440.389,252.456c-0.011,0.04-0.011,0.09-0.021,0.13
									c0.15,0.04,0.29,0.08,0.43,0.12c0.16-0.29,0.351-0.55,0.541-0.8L440.389,252.456z M457.729,254.926
									c-0.681,0.011-1.37,0.011-2.05,0c0.739,0.63,1.47,1.311,2.16,2.04l1.22-0.71
									C458.628,255.796,458.179,255.347,457.729,254.926z M440.368,252.586c0.15,0.04,0.29,0.08,0.43,0.12
									c0.16-0.29,0.351-0.55,0.541-0.8l-0.95,0.55C440.378,252.496,440.378,252.546,440.368,252.586z M470.108,278.856
									c-0.061-0.541-0.141-1.08-0.23-1.62c-0.189-1.08-0.439-2.16-0.75-3.261c-0.14-0.5-0.289-1-0.449-1.5
									c-0.33-1.01-0.711-2.029-1.131-3.029c-0.189-0.471-0.399-0.95-0.609-1.41c-0.44-0.971-0.92-1.93-1.43-2.86
									c-0.25-0.45-0.5-0.89-0.761-1.319c-0.54-0.92-1.12-1.82-1.729-2.69c-0.28-0.42-0.58-0.83-0.891-1.24
									c-0.64-0.88-1.319-1.72-2.02-2.52c-0.35-0.4-0.7-0.78-1.05-1.15c-0.431-0.46-0.88-0.909-1.33-1.33
									c-0.351-0.34-0.71-0.659-1.07-0.97c-0.41-0.37-0.819-0.71-1.24-1.04c-0.96-0.75-1.939-1.42-2.93-1.99
									c-0.021-0.02-0.04-0.03-0.06-0.04c-0.521-0.3-1.03-0.57-1.54-0.8c-1.44-0.68-2.841-1.13-4.141-1.3
									c-0.46-0.08-0.909-0.11-1.35-0.11c-0.7,0-1.33,0.08-1.91,0.23c-1.07,0.28-1.94,0.79-2.64,1.45l-0.17,0.17l-0.011,0.01
									c-0.5,0.51-0.909,1.1-1.239,1.74c-0.141,0.26-0.261,0.539-0.381,0.81v0.011c-0.89,2.17-1.05,4.619-1.05,6.129
									c0,10.711,7.5,24.16,16.65,30.181c0.399,0.28,0.81,0.53,1.22,0.77c2.51,1.45,4.94,2.22,7.03,2.22
									c0.74,0,1.42-0.09,2.02-0.26c0.8-0.22,1.49-0.58,2.07-1.039c0.3-0.221,0.57-0.471,0.81-0.75
									c0.461-0.5,0.83-1.07,1.141-1.681v-0.01c0.7-1.4,1.05-2.98,1.22-4.39c0.08-0.66,0.12-1.291,0.13-1.83
									c0.01-0.211,0.01-0.41,0.01-0.59C470.298,280.866,470.238,279.866,470.108,278.856z M468.628,285.146
									c-0.35,1.83-1.08,3.78-2.6,4.91c-0.8,0.59-1.83,0.961-3.13,0.961c-0.45,0-0.91-0.041-1.4-0.121h-0.01
									c-1.31-0.22-2.72-0.739-4.21-1.529h-0.02c-0.23-0.12-0.471-0.24-0.7-0.38c-9.32-5.38-17.19-19.011-17.19-29.761
									c0-1.3,0.13-3.41,0.84-5.279c0.16-0.43,0.36-0.85,0.59-1.24c0.16-0.29,0.351-0.55,0.541-0.8l0.01-0.011
									c0.729-0.89,1.72-1.549,3.069-1.77h0.011c0.3-0.04,0.619-0.07,0.97-0.07c1.21,0,2.569,0.301,4.01,0.881
									c0.55,0.22,1.11,0.489,1.681,0.789c0.22,0.11,0.43,0.23,0.649,0.36c0.81,0.47,1.601,0.99,2.38,1.58
									c0.43,0.32,0.86,0.66,1.28,1.021c0.1,0.069,0.18,0.14,0.27,0.239h0.011c0.739,0.63,1.47,1.311,2.16,2.04
									c0.369,0.37,0.72,0.75,1.06,1.141c0.71,0.789,1.39,1.63,2.05,2.5c0.3,0.399,0.6,0.819,0.891,1.24
									c0.609,0.869,1.189,1.77,1.729,2.689c0.26,0.43,0.521,0.87,0.76,1.32c0.511,0.939,0.99,1.899,1.42,2.869
									c0.22,0.461,0.42,0.931,0.61,1.4c0.42,1.01,0.79,2.03,1.1,3.05v0.011c0.17,0.51,0.311,1,0.45,1.5
									c0.29,1.1,0.53,2.199,0.69,3.279c0.09,0.551,0.16,1.1,0.21,1.641c0.069,0.76,0.109,1.51,0.109,2.24
									c0,0.399-0.01,0.879-0.05,1.409C468.828,283.847,468.748,284.486,468.628,285.146z M440.389,252.456
									c-0.011,0.04-0.011,0.09-0.021,0.13c0.15,0.04,0.29,0.08,0.43,0.12c0.16-0.29,0.351-0.55,0.541-0.8L440.389,252.456z
									 M457.729,254.926c-0.681,0.011-1.37,0.011-2.05,0c0.739,0.63,1.47,1.311,2.16,2.04l1.22-0.71
									C458.628,255.796,458.179,255.347,457.729,254.926z"/>
								<g>
									<path fill="#FFB300" d="M459.608,274.026c-0.2-0.471-0.44-0.92-0.71-1.351c-0.57-0.909-1.29-1.739-2.08-2.479
										c-0.4-0.37-0.81-0.73-1.229-1.051c-0.311-0.25-0.621-0.479-0.931-0.699c-0.75-0.521-1.36-0.96-1.76-1.44
										c-0.32-0.38-0.5-0.78-0.5-1.26c0-0.08,0.01-0.16,0.03-0.22c0.069-0.271,0.289-0.37,0.59-0.34
										c0.33,0.02,0.779,0.199,1.229,0.459c0.16,0.091,0.32,0.19,0.48,0.301c0.899,0.57,1.72,1.29,2.46,2.279
										c0.09,0.11,0.17,0.221,0.25,0.34l1.51-1.359l0.02-0.02h0.011l0.37-0.33c-0.631-0.931-1.28-1.73-1.98-2.431
										c-0.38-0.38-0.779-0.729-1.189-1.06c-0.12-0.1-0.25-0.2-0.37-0.29v-2l-1.03-0.59l-1.53-0.88l-0.72-0.42v2.05
										c-0.53-0.19-1.04-0.311-1.5-0.351h-0.01c-1.08-0.08-1.92,0.301-2.28,1.32c-0.13,0.359-0.2,0.79-0.2,1.311
										c0,0.189,0.01,0.369,0.021,0.549c0.109,1.75,0.75,3.16,1.7,4.381l0.01,0.01c0.01,0.02,0.02,0.04,0.029,0.05
										c0.67,0.851,1.49,1.61,2.391,2.31c0.43,0.341,0.89,0.671,1.35,0.98c0.021,0.02,0.03,0.03,0.051,0.04
										c1.25,0.851,2,1.65,2.199,2.351c0.061,0.14,0.08,0.27,0.08,0.399c0,0.49-0.27,0.71-0.72,0.681
										c-0.37-0.011-0.851-0.19-1.42-0.521c-1.15-0.66-2.65-1.8-4-4.08l-2.12,1.58c1.42,2.58,2.78,4.06,4.42,5.229v2.121
										l3.28,1.89v-2.181c1.05,0.4,2.03,0.541,2.79,0.33c0.859-0.24,1.439-0.939,1.56-2.229v-0.011
										c0.021-0.17,0.03-0.35,0.03-0.539C460.188,275.856,459.979,274.906,459.608,274.026z"/>
								</g>
							</g>
						</g>
						<g>
							<linearGradient id="SVGID_20_" gradientUnits="userSpaceOnUse" x1="399.0566" y1="282.4453" x2="462.3011" y2="282.4453">
								<stop  offset="0.0017" style="stop-color:#00D4C8"/>
								<stop  offset="1" style="stop-color:#00D2C7;stop-opacity:0"/>
							</linearGradient>
							<path opacity="0.7" fill="url(#SVGID_20_)" d="M492.601,309.959v-75.622c0,5.271-3.482,10.541-10.447,14.563
								c-13.931,8.043-36.517,8.043-50.447,0c-6.965-4.021-10.448-9.292-10.448-14.563v75.623l0,0
								c0,5.271,3.483,10.541,10.448,14.563c13.931,8.043,36.517,8.043,50.447,0C489.118,320.501,492.601,315.229,492.601,309.959z"
								/>
							<linearGradient id="SVGID_21_" gradientUnits="userSpaceOnUse" x1="507.1953" y1="282.4463" x2="462.8023" y2="282.4463">
								<stop  offset="0.0017" style="stop-color:#00D4C8"/>
								<stop  offset="1" style="stop-color:#00D2C7;stop-opacity:0"/>
							</linearGradient>
							<path opacity="0.7" fill="url(#SVGID_21_)" d="M492.601,309.959v-75.622c0,5.271-3.482,10.541-10.447,14.563
								c-13.931,8.043-36.517,8.043-50.447,0c-6.965-4.021-10.448-9.292-10.448-14.563v75.623l0,0
								c0,5.271,3.483,10.541,10.448,14.563c13.931,8.043,36.517,8.043,50.447,0C489.118,320.501,492.601,315.229,492.601,309.959z"
								/>
							<linearGradient id="SVGID_22_" gradientUnits="userSpaceOnUse" x1="456.9297" y1="201.25" x2="456.9297" y2="271.8689">
								<stop  offset="0.0017" style="stop-color:#00D4C8"/>
								<stop  offset="1" style="stop-color:#00D2C7;stop-opacity:0"/>
							</linearGradient>
							<path fill="url(#SVGID_22_)" d="M482.153,248.899c-13.931,8.043-36.517,8.043-50.447,0s-13.931-21.082,0-29.125
								s36.516-8.043,50.446,0S496.083,240.856,482.153,248.899z"/>
						</g>
					</g>
					<path fill="#FFFFFF" d="M426.6,277.35L426.6,277.35c-1.505-0.869-2.432-2.475-2.432-4.212v-21.849
						c0-0.721,0.78-1.171,1.405-0.811l0,0c1.543,0.891,2.494,2.538,2.494,4.32v21.703C428.067,277.255,427.252,277.726,426.6,277.35
						z"/>
					<path fill="#FFFFFF" d="M426.6,292.104L426.6,292.104c-1.505-0.869-2.432-2.475-2.432-4.212v-4.658
						c0-0.722,0.78-1.172,1.405-0.812l0,0c1.543,0.892,2.494,2.538,2.494,4.32v4.514C428.067,292.011,427.252,292.481,426.6,292.104
						z"/>
				</g>
				<g>
					<path fill="#CBDFEF" d="M294.97,246.142v-31.916h-71.343v31.917l0,0c0,5.271,3.482,10.542,10.448,14.563
						c13.93,8.043,36.516,8.043,50.446,0.001C291.487,256.684,294.97,251.413,294.97,246.142z"/>
					<linearGradient id="SVGID_23_" gradientUnits="userSpaceOnUse" x1="253.9766" y1="240.4814" x2="307.6074" y2="240.4814">
						<stop  offset="0" style="stop-color:#FFFFFF;stop-opacity:0"/>
						<stop  offset="1" style="stop-color:#662D8D"/>
					</linearGradient>
					<path opacity="0.8" fill="url(#SVGID_23_)" d="M294.97,246.142v-31.916h-71.343v31.917l0,0c0,5.271,3.482,10.542,10.448,14.563
						c13.93,8.043,36.516,8.043,50.446,0.001C291.487,256.684,294.97,251.413,294.97,246.142z"/>
					<path fill="#FFFFFF" d="M284.521,228.79c-13.931,8.043-36.517,8.043-50.446,0c-13.931-8.043-13.931-21.083-0.001-29.126
						c13.931-8.042,36.517-8.042,50.447,0C298.452,207.707,298.452,220.747,284.521,228.79z"/>
					<g>
						<linearGradient id="SVGID_24_" gradientUnits="userSpaceOnUse" x1="259.2979" y1="177.1406" x2="259.2979" y2="247.7595">
							<stop  offset="0.0017" style="stop-color:#00D4C8"/>
							<stop  offset="1" style="stop-color:#00D2C7;stop-opacity:0"/>
						</linearGradient>
						<path fill="url(#SVGID_24_)" d="M284.521,224.791c-13.931,8.042-36.517,8.042-50.446,0
							c-13.931-8.043-13.931-21.083-0.001-29.126c13.931-8.043,36.517-8.043,50.447,0S298.452,216.748,284.521,224.791z"/>
						<g>
							<circle fill="#D32F2F" cx="282.523" cy="152.843" r="2.376"/>
							<circle fill="#D32F2F" cx="280.146" cy="204.022" r="2.377"/>
							<circle fill="#D32F2F" cx="239.368" cy="185.737" r="2.377"/>
							<circle fill="#D32F2F" cx="277.77" cy="142.792" r="1.5"/>
							<circle fill="#D32F2F" cx="271.082" cy="210.229" r="1.5"/>
							<circle fill="#D32F2F" cx="239.102" cy="140.642" r="1.5"/>
							<circle fill="#D32F2F" cx="288.905" cy="184.667" r="1.5"/>
							<circle fill="#D32F2F" cx="235.437" cy="206.399" r="1.5"/>
							<g>
								<path fill="#D32F2F" d="M281.676,178.911c0,0.11,0,0.234-0.014,0.345c-0.015,1.405-0.138,2.714-0.372,3.912
									c-0.138,0.73-0.317,1.419-0.537,2.066c-0.909,2.769-2.466,4.849-4.491,6.13l0.014,0.014l-0.179,0.11
									c-0.11,0.055-0.221,0.124-0.345,0.192l-5.51,3.196l-1.24-2.135c-2.148-0.304-4.477-1.103-6.929-2.521
									c-10.828-6.239-19.589-21.448-19.589-33.942c0-1.268,0.097-2.452,0.275-3.555c0.11-0.702,0.262-1.377,0.427-2.011
									c0.152-0.523,0.317-1.02,0.496-1.502l-1.295-2.231l5.565-3.209c0.193-0.11,0.372-0.221,0.564-0.317l0.304-0.179l0.014,0.027
									c2.259-1.088,5.015-1.309,8.072-0.51c0.634,0.165,1.295,0.372,1.956,0.634c1.047,0.399,2.121,0.909,3.21,1.543
									c0.083,0.042,0.165,0.097,0.248,0.151c0.482,0.275,0.964,0.592,1.446,0.923c0.937,0.62,1.874,1.322,2.769,2.095
									c0.399,0.344,0.813,0.688,1.198,1.061c0.8,0.729,1.571,1.515,2.329,2.342c0.344,0.371,0.688,0.771,1.019,1.17
									c0.703,0.813,1.364,1.654,2.012,2.521c0.289,0.413,0.592,0.826,0.868,1.254c0.605,0.867,1.184,1.776,1.722,2.699
									c0.262,0.441,0.523,0.882,0.757,1.323c0.524,0.937,1.006,1.887,1.447,2.851c0.22,0.469,0.427,0.924,0.619,1.392
									c0.428,1.006,0.813,2.012,1.157,3.017c0.18,0.496,0.331,0.992,0.482,1.488c0.331,1.074,0.606,2.148,0.813,3.209
									c0.124,0.524,0.221,1.062,0.304,1.585c0.192,1.171,0.316,2.328,0.371,3.472
									C281.662,177.988,281.676,178.456,281.676,178.911z"/>
								<linearGradient id="SVGID_25_" gradientUnits="userSpaceOnUse" x1="256.8398" y1="157.5117" x2="277.7351" y2="197.7399">
									<stop  offset="0" style="stop-color:#FFFFFF;stop-opacity:0"/>
									<stop  offset="1" style="stop-color:#662D8D"/>
								</linearGradient>
								<path opacity="0.8" fill="url(#SVGID_25_)" d="M281.676,178.911c0,0.11,0,0.234-0.014,0.345
									c-0.015,1.405-0.138,2.714-0.372,3.912c-0.138,0.73-0.317,1.419-0.537,2.066c-0.909,2.769-2.466,4.849-4.491,6.13
									l0.014,0.014l-0.179,0.11c-0.11,0.055-0.221,0.124-0.345,0.192l-5.51,3.196l-1.24-2.135
									c-2.148-0.304-4.477-1.103-6.929-2.521c-10.828-6.239-19.589-21.448-19.589-33.942c0-1.268,0.097-2.452,0.275-3.555
									c0.11-0.702,0.262-1.377,0.427-2.011c0.152-0.523,0.317-1.02,0.496-1.502l-1.295-2.231l5.565-3.209
									c0.193-0.11,0.372-0.221,0.564-0.317l0.304-0.179l0.014,0.027c2.259-1.088,5.015-1.309,8.072-0.51
									c0.634,0.165,1.295,0.372,1.956,0.634c1.047,0.399,2.121,0.909,3.21,1.543c0.083,0.042,0.165,0.097,0.248,0.151
									c0.482,0.275,0.964,0.592,1.446,0.923c0.937,0.62,1.874,1.322,2.769,2.095c0.399,0.344,0.813,0.688,1.198,1.061
									c0.8,0.729,1.571,1.515,2.329,2.342c0.344,0.371,0.688,0.771,1.019,1.17c0.703,0.813,1.364,1.654,2.012,2.521
									c0.289,0.413,0.592,0.826,0.868,1.254c0.605,0.867,1.184,1.776,1.722,2.699c0.262,0.441,0.523,0.882,0.757,1.323
									c0.524,0.937,1.006,1.887,1.447,2.851c0.22,0.469,0.427,0.924,0.619,1.392c0.428,1.006,0.813,2.012,1.157,3.017
									c0.18,0.496,0.331,0.992,0.482,1.488c0.331,1.074,0.606,2.148,0.813,3.209c0.124,0.524,0.221,1.062,0.304,1.585
									c0.192,1.171,0.316,2.328,0.371,3.472C281.662,177.988,281.676,178.456,281.676,178.911z"/>
								<path fill="#EF5350" d="M276.112,182.118c0,12.496-8.773,17.562-19.596,11.313c-10.822-6.249-19.596-21.444-19.596-33.94
									c0-12.497,8.773-17.563,19.596-11.314C267.339,154.426,276.112,169.621,276.112,182.118z"/>
								<path fill="none" stroke="#FFFFFF" stroke-width="1.0404" stroke-miterlimit="10" d="M271.97,179.727
									c0,9.854-6.919,13.85-15.453,8.922c-8.535-4.928-15.454-16.911-15.454-26.767c0-9.854,6.919-13.85,15.454-8.922
									C265.051,157.888,271.97,169.871,271.97,179.727z"/>
								<path fill="none" stroke="#FFFFFF" stroke-width="1.0404" stroke-miterlimit="10" d="M267.296,177.027
									c0,6.874-4.826,9.66-10.779,6.224c-5.953-3.438-10.779-11.796-10.779-18.67s4.826-9.66,10.779-6.223
									C262.47,161.795,267.296,170.153,267.296,177.027z"/>
								<path fill="none" stroke="#FFFFFF" stroke-width="1.0404" stroke-miterlimit="10" d="M262.893,174.485
									c0,4.066-2.854,5.715-6.376,3.682s-6.377-6.978-6.377-11.044s2.855-5.715,6.377-3.682S262.893,170.419,262.893,174.485z"/>
								<path fill="#FFFFFF" d="M259.024,172.253c0,1.6-1.123,2.247-2.508,1.447c-1.386-0.8-2.509-2.744-2.509-4.344
									s1.123-2.248,2.509-1.448C257.901,168.708,259.024,170.653,259.024,172.253z"/>
							</g>
						</g>
						<g>
							<linearGradient id="SVGID_26_" gradientUnits="userSpaceOnUse" x1="201.4258" y1="182.7139" x2="264.6702" y2="182.7139">
								<stop  offset="0.0017" style="stop-color:#00D4C8"/>
								<stop  offset="1" style="stop-color:#00D2C7;stop-opacity:0"/>
							</linearGradient>
							<path opacity="0.7" fill="url(#SVGID_26_)" d="M294.97,210.228v-75.622c0,5.271-3.482,10.541-10.448,14.563
								c-13.931,8.043-36.517,8.042-50.446,0c-6.966-4.021-10.448-9.292-10.448-14.563v75.623l0,0
								c0,5.271,3.482,10.541,10.448,14.563c13.93,8.042,36.516,8.042,50.446,0C291.487,220.769,294.97,215.498,294.97,210.228z"/>
							<linearGradient id="SVGID_27_" gradientUnits="userSpaceOnUse" x1="309.5645" y1="182.7139" x2="265.1714" y2="182.7139">
								<stop  offset="0.0017" style="stop-color:#00D4C8"/>
								<stop  offset="1" style="stop-color:#00D2C7;stop-opacity:0"/>
							</linearGradient>
							<path opacity="0.7" fill="url(#SVGID_27_)" d="M294.97,210.228v-75.622c0,5.271-3.482,10.541-10.448,14.563
								c-13.931,8.043-36.517,8.042-50.446,0c-6.966-4.021-10.448-9.292-10.448-14.563v75.623l0,0
								c0,5.271,3.482,10.541,10.448,14.563c13.93,8.042,36.516,8.042,50.446,0C291.487,220.769,294.97,215.498,294.97,210.228z"/>
							<linearGradient id="SVGID_28_" gradientUnits="userSpaceOnUse" x1="259.2979" y1="101.5186" x2="259.2979" y2="172.1375">
								<stop  offset="0.0017" style="stop-color:#00D4C8"/>
								<stop  offset="1" style="stop-color:#00D2C7;stop-opacity:0"/>
							</linearGradient>
							<path fill="url(#SVGID_28_)" d="M284.521,149.168c-13.931,8.043-36.517,8.043-50.446,0
								c-13.931-8.043-13.931-21.083-0.001-29.126c13.931-8.042,36.517-8.042,50.447,0
								C298.452,128.085,298.452,141.125,284.521,149.168z"/>
						</g>
					</g>
					<path fill="#FFFFFF" d="M228.969,177.618L228.969,177.618c-1.505-0.869-2.432-2.475-2.432-4.212v-21.849
						c0-0.721,0.78-1.172,1.405-0.812l0,0c1.543,0.892,2.494,2.538,2.494,4.321v21.703
						C230.437,177.523,229.621,177.994,228.969,177.618z"/>
					<path fill="#FFFFFF" d="M228.969,192.372L228.969,192.372c-1.505-0.868-2.432-2.474-2.432-4.211v-4.658
						c0-0.722,0.78-1.172,1.405-0.812l0,0c1.543,0.891,2.494,2.538,2.494,4.32v4.513
						C230.437,192.278,229.621,192.749,228.969,192.372z"/>
				</g>
				<g>
					<path fill="#25284C" d="M368.11,300.513c0,0-5.888,6.264-6.271,12.491l1.147,2.452l2.37-1.73c0,0,1.683-8.183,4.741-10.629
						L368.11,300.513z"/>
					<path fill="#111638" d="M381.929,373.884c0,0,0.406,3.874-1.489,3.673c-2.209-0.234-9.05-4.84-7.527-6.291
						c1.523-1.451,7.233,1.175,7.233,1.175L381.929,373.884z"/>
					<path fill="#111638" d="M369.77,379.618c0,0,0.407,3.875-1.489,3.674c-2.208-0.234-9.05-4.84-7.526-6.291
						s7.233,1.175,7.233,1.175L369.77,379.618z"/>
					<rect x="371.503" y="283.017" fill="#F5F5F5" width="4.06" height="5.732"/>
					<path fill="#25284C" d="M367.181,313.927c0,0-6.531,14.906-1.625,66.064c0.024,0.263,0.173,0.502,0.401,0.633
						c0.859,0.494,3.027,1.371,4.146-1.52c0.03-0.076,0.048-0.16,0.055-0.242l4.254-53.585c0.034-0.862,0.483-0.901,0.57-0.042
						l2.611,48.993c0.02,0.369,0.255,0.691,0.601,0.821c1.145,0.43,3.648,0.929,4.115-2.673c0,0,4.437-52.998-0.744-60.185
						L367.181,313.927z"/>
					<path fill="#111638" d="M381.565,310.552c-0.117,0.22-0.257,0.428-0.434,0.608c-1.486,1.521-5.492,4.265-13.475,1.411
						c-0.179-0.064-0.339-0.162-0.477-0.285v1.641c0.138,0.123,0.298,0.221,0.477,0.285c7.982,2.854,11.988,0.109,13.475-1.411
						c0.177-0.181,0.316-0.389,0.434-0.608V310.552z"/>
					<path fill="#FFFFFF" d="M397.795,261.943c0,0,0.004-3.469,0.476-3.544c0.332-0.052,0.319,1.102,0.319,1.102
						s0.39-2.578,0.948-2.434c0.203,0.052-0.053,1.633-0.053,1.633s0.242-0.908,1.683-0.001c0.447,0.282,0.342,1.125-1.371,3.816
						L397.795,261.943z"/>
					<path fill="#7B92B9" d="M380.709,285.21c0,0,12.148-1.052,16.947-23.54c0,0,1.294-0.243,2.326,0.818
						c0,0-0.712,27.04-17.528,32.23L380.709,285.21z"/>
					<path fill="#6A7EA2" d="M371.503,286.807l4.06-0.923l6.403-0.835c1.567-0.206,2.695,2.062,2.808,4.491
						c0.214,4.615-2.885,20.322-2.885,20.322c-0.041,0.635-0.301,1.236-0.744,1.692c-1.478,1.519-5.482,4.286-13.487,1.424
						c-0.507-0.181-0.875-0.628-0.953-1.161l-2.98-18.57c-0.155-0.969,0.256-1.94,1.059-2.503L371.503,286.807z"/>
					<path fill="#FFFFFF" d="M366.452,275.808c0,0,0.492,5.547,2.784,8.389c2.293,2.842,6.733-1.85,7.395-3.218
						c0.662-1.368,1.733-9.941-5.154-9.941C367.009,271.037,366.224,273.813,366.452,275.808z"/>
					<path fill="#25284C" d="M373.088,279.261c0,0-2.314-1.638-3.174-4.428c0,0-0.508-0.305-3.325,2.061
						c0,0-3.181-0.008-1.703-3.361c1.477-3.354,7.59-7.594,10.529-4.24c0,0,5.6-0.933,4.516,6.319
						c-1.428,9.555-5.903,7.981-7.021,5.796C371.812,279.264,373.088,279.261,373.088,279.261z"/>
					<path fill="#FFFFFF" d="M371.644,278.139c0,0,0.927-1.825,1.691-0.736c0.765,1.09-0.157,3.29-1.827,3.576L371.644,278.139z"/>
					<polygon fill="#25284C" points="346.317,285.155 354.939,293.742 363.59,288.601 354.939,279.749 					"/>
					<polyline fill="none" stroke="#FFFFFF" stroke-width="0.7521" stroke-miterlimit="10" points="354.207,289.746 354.207,287.82 
						356.022,287.82 356.022,283.768 					"/>
					<polyline fill="none" stroke="#FFFFFF" stroke-width="0.7521" stroke-miterlimit="10" points="354.306,284.891 
						355.921,283.275 357.739,285.094 					"/>
					<path fill="#FFFFFF" d="M350.058,288.87c-0.03-0.053,0.676-0.784,1.211-1.327c0.155-0.157,0.419-0.005,0.358,0.208l-0.36,1.269
						c0,0,1.832-0.51,0.805,2.513l-1.782,0.482L350.058,288.87z"/>
					<path fill="#7B92B9" d="M352.231,291.493c0,0,9.446,16.971,3.827,18.035c-5.62,1.064-5.889-17.478-5.889-17.478
						S350.719,291.271,352.231,291.493z"/>
					<path fill="#7B92B9" d="M364.782,290.744c0,0-2.536,1.271-6.063,6.293c-4.787,6.818-6.992,10.89-2.543,12.393
						c1.126,0.38,8.897-7.771,8.897-7.771S368.235,294.901,364.782,290.744z"/>
					<path fill="#7B92B9" d="M370.682,287.288l0.821-1.404c0,0,1.394-0.854,4.06-0.91l0.97,0.826
						C376.532,285.8,376.326,286.764,370.682,287.288z"/>
				</g>
				<g>
					<polygon fill="#CBDFEF" points="287.816,270.508 257.121,339.745 254.331,338.087 254.331,297.852 					"/>
					<polygon fill="#CBDFEF" points="290.606,272.166 290.606,320.412 257.121,339.745 257.121,299.51 					"/>
					<linearGradient id="SVGID_29_" gradientUnits="userSpaceOnUse" x1="257.5254" y1="273.2764" x2="295.4116" y2="349.0486">
						<stop  offset="0" style="stop-color:#FFFFFF;stop-opacity:0"/>
						<stop  offset="1" style="stop-color:#662D8D"/>
					</linearGradient>
					<polygon opacity="0.8" fill="url(#SVGID_29_)" points="290.606,272.166 290.606,320.412 257.121,339.745 257.121,299.51 					
						"/>
				</g>
				<g>
					<polygon fill="#CBDFEF" points="341.737,301.592 311.042,370.828 308.252,369.17 308.252,328.935 					"/>
					<polygon fill="#CBDFEF" points="344.527,303.25 344.527,351.495 311.042,370.828 311.042,330.593 					"/>
					<linearGradient id="SVGID_30_" gradientUnits="userSpaceOnUse" x1="283.3174" y1="337.0391" x2="386.2681" y2="337.0391">
						<stop  offset="0" style="stop-color:#FFFFFF;stop-opacity:0"/>
						<stop  offset="1" style="stop-color:#662D8D"/>
					</linearGradient>
					<polygon opacity="0.8" fill="url(#SVGID_30_)" points="344.527,303.25 344.527,351.495 311.042,370.828 311.042,330.593 					
						"/>
				</g>
				<polygon fill="#CBDFEF" points="311.042,333.288 254.331,300.546 344.527,303.25 344.527,305.944 				"/>
				<linearGradient id="SVGID_31_" gradientUnits="userSpaceOnUse" x1="283.3174" y1="316.917" x2="386.2674" y2="316.917">
					<stop  offset="0" style="stop-color:#FFFFFF;stop-opacity:0"/>
					<stop  offset="1" style="stop-color:#662D8D"/>
				</linearGradient>
				<polygon opacity="0.8" fill="url(#SVGID_31_)" points="311.042,333.288 254.331,300.546 344.527,303.25 344.527,305.944 				"/>
				<polygon fill="#FFFFFF" points="311.042,330.593 254.331,297.852 287.816,270.508 344.527,303.25 				"/>
				<polygon fill="#25284C" points="310.271,326.092 260.93,297.584 288.587,275 337.929,303.508 				"/>
				<linearGradient id="SVGID_32_" gradientUnits="userSpaceOnUse" x1="295.5342" y1="277.4277" x2="292.8864" y2="303.5278">
					<stop  offset="0.0039" style="stop-color:#FFFFFF;stop-opacity:0"/>
					<stop  offset="1" style="stop-color:#FDC870"/>
				</linearGradient>
				<path fill="url(#SVGID_32_)" d="M297.799,301.126l-18.808-10.865c-0.434-0.251-0.482-0.858-0.095-1.176l9.913-8.095
					c0.529-0.433,1.271-0.492,1.863-0.15l18.548,10.717c0.559,0.323,0.622,1.105,0.122,1.515l-9.682,7.905
					C299.132,301.408,298.391,301.468,297.799,301.126z"/>
				<linearGradient id="SVGID_33_" gradientUnits="userSpaceOnUse" x1="286.6084" y1="293.4297" x2="279.9572" y2="306.0441">
					<stop  offset="0" style="stop-color:#BA68C8;stop-opacity:0"/>
					<stop  offset="1" style="stop-color:#BA68C8"/>
				</linearGradient>
				<path fill="url(#SVGID_33_)" d="M289.365,307.867l-18.807-10.866c-0.435-0.251-0.483-0.858-0.095-1.176l4.902-3.912
					c0.529-0.432,1.271-0.492,1.862-0.15l18.548,10.717c0.56,0.322,0.623,1.105,0.122,1.514l-4.671,3.724
					C290.698,308.149,289.957,308.209,289.365,307.867z"/>
				<g>
					<linearGradient id="SVGID_34_" gradientUnits="userSpaceOnUse" x1="302.2246" y1="303.2422" x2="296.0348" y2="314.9815">
						<stop  offset="0.0017" style="stop-color:#00D4C8"/>
						<stop  offset="1" style="stop-color:#00D2C7;stop-opacity:0"/>
					</linearGradient>
					<path opacity="0.7" fill="url(#SVGID_34_)" d="M298.876,313.56l-6.13-3.508c-0.435-0.251-0.483-0.859-0.095-1.176l4.902-3.912
						c0.529-0.433,1.271-0.492,1.863-0.15l5.87,3.358c0.56,0.323,0.623,1.105,0.122,1.515l-4.671,3.723
						C300.209,313.841,299.468,313.901,298.876,313.56z"/>
					<linearGradient id="SVGID_35_" gradientUnits="userSpaceOnUse" x1="311.9893" y1="303.002" x2="306.0037" y2="322.4551">
						<stop  offset="0.0017" style="stop-color:#EF5350"/>
						<stop  offset="1" style="stop-color:#EF5350;stop-opacity:0"/>
					</linearGradient>
					<path fill="url(#SVGID_35_)" d="M308.476,318.987l-6.541-3.869c-0.434-0.251-0.482-0.858-0.095-1.176l4.903-3.912
						c0.529-0.432,1.271-0.492,1.862-0.15l6.281,3.72c0.56,0.323,0.623,1.105,0.122,1.515l-4.671,3.723
						C309.809,319.27,309.067,319.329,308.476,318.987z"/>
				</g>
				<polygon fill="#CBDFEF" points="311.042,333.288 311.042,330.593 254.331,297.852 254.331,300.546 				"/>
				
					<path fill="none" stroke="#FFFFFF" stroke-width="1.0404" stroke-linecap="round" stroke-linejoin="round" stroke-miterlimit="10" d="
					M282.687,289.675c0.045-0.098,9.126-0.726,9.126-0.726l1.757,3.167h10.937l-2.368-1.133"/>
				
					<line fill="none" stroke="#FFFFFF" stroke-width="1.0404" stroke-linecap="round" stroke-linejoin="round" stroke-miterlimit="10" x1="304.506" y1="292.116" x2="304.506" y2="293.996"/>
				<path fill="#EF5350" d="M315.466,296.341c-0.445,0.257-1.166,0.257-1.611,0s-0.445-0.674,0-0.931s1.166-0.257,1.611,0
					S315.911,296.084,315.466,296.341z"/>
				<path fill="#FFEE58" d="M318.762,298.22c-0.445,0.258-1.167,0.258-1.612,0c-0.444-0.257-0.444-0.673,0-0.93
					c0.445-0.258,1.167-0.258,1.612,0C319.206,297.547,319.206,297.963,318.762,298.22z"/>
				<path fill="#EF5350" d="M322.057,300.1c-0.444,0.257-1.167,0.257-1.611,0c-0.445-0.257-0.445-0.673,0-0.931
					c0.444-0.257,1.167-0.257,1.611,0C322.502,299.427,322.502,299.843,322.057,300.1z"/>
				<path fill="#EF5350" d="M325.353,301.979c-0.445,0.257-1.167,0.257-1.612,0c-0.444-0.257-0.444-0.674,0-0.931
					c0.445-0.257,1.167-0.257,1.612,0C325.797,301.306,325.797,301.723,325.353,301.979z"/>
				<path fill="#EF5350" d="M328.647,303.858c-0.445,0.258-1.166,0.258-1.611,0c-0.445-0.256-0.445-0.673,0-0.93
					s1.166-0.257,1.611,0S329.093,303.603,328.647,303.858z"/>
				<path fill="#EF5350" d="M312.755,298.4c-0.444,0.257-1.166,0.257-1.611,0s-0.445-0.673,0-0.931c0.445-0.257,1.167-0.257,1.611,0
					C313.2,297.728,313.2,298.144,312.755,298.4z"/>
				<path fill="#EF5350" d="M316.051,300.28c-0.445,0.257-1.167,0.257-1.612,0c-0.444-0.257-0.444-0.674,0-0.931
					c0.445-0.257,1.167-0.257,1.612,0C316.495,299.606,316.495,300.023,316.051,300.28z"/>
				<path fill="#EF5350" d="M319.346,302.159c-0.444,0.258-1.166,0.258-1.611,0c-0.445-0.256-0.445-0.673,0-0.93
					s1.167-0.257,1.611,0C319.791,301.486,319.791,301.903,319.346,302.159z"/>
				<path fill="#FFEE58" d="M322.642,304.039c-0.445,0.257-1.167,0.257-1.612,0c-0.444-0.257-0.444-0.673,0-0.931
					c0.445-0.256,1.167-0.256,1.612,0C323.087,303.366,323.087,303.782,322.642,304.039z"/>
				<path fill="#FFEE58" d="M325.937,305.919c-0.445,0.257-1.166,0.257-1.611,0s-0.445-0.674,0-0.931s1.166-0.257,1.611,0
					S326.382,305.662,325.937,305.919z"/>
				<path fill="#FFEE58" d="M310.044,300.46c-0.444,0.258-1.166,0.258-1.611,0c-0.445-0.256-0.445-0.673,0-0.93s1.167-0.257,1.611,0
					C310.489,299.787,310.489,300.204,310.044,300.46z"/>
				<path fill="#EF5350" d="M313.34,302.34c-0.445,0.257-1.167,0.257-1.611,0c-0.445-0.257-0.445-0.673,0-0.931
					c0.444-0.257,1.166-0.257,1.611,0C313.784,301.667,313.784,302.083,313.34,302.34z"/>
				<path fill="#FFEE58" d="M316.635,304.22c-0.444,0.257-1.166,0.257-1.611,0s-0.445-0.674,0-0.931s1.167-0.257,1.611,0
					C317.08,303.546,317.08,303.963,316.635,304.22z"/>
				<path fill="#EF5350" d="M319.931,306.1c-0.445,0.257-1.167,0.257-1.611,0c-0.445-0.257-0.445-0.674,0-0.931
					c0.444-0.257,1.166-0.257,1.611,0S320.376,305.843,319.931,306.1z"/>
				<path fill="#EF5350" d="M323.226,307.979c-0.445,0.257-1.166,0.257-1.611,0s-0.445-0.673,0-0.931
					c0.445-0.256,1.166-0.256,1.611,0C323.671,307.306,323.671,307.722,323.226,307.979z"/>
				<path fill="#EF5350" d="M307.333,302.521c-0.444,0.257-1.166,0.257-1.611,0s-0.445-0.674,0-0.931s1.167-0.257,1.611,0
					C307.778,301.847,307.778,302.264,307.333,302.521z"/>
				<path fill="#EF5350" d="M310.629,304.4c-0.445,0.257-1.167,0.257-1.611,0c-0.445-0.257-0.445-0.674,0-0.931
					c0.444-0.257,1.166-0.257,1.611,0S311.074,304.144,310.629,304.4z"/>
				<path fill="#EF5350" d="M313.924,306.279c-0.444,0.257-1.166,0.257-1.611,0s-0.445-0.673,0-0.931
					c0.445-0.256,1.167-0.256,1.611,0C314.369,305.606,314.369,306.022,313.924,306.279z"/>
				<path fill="#EF5350" d="M317.22,308.159c-0.445,0.257-1.167,0.257-1.611,0c-0.445-0.257-0.445-0.674,0-0.931
					c0.444-0.257,1.166-0.257,1.611,0S317.665,307.902,317.22,308.159z"/>
				<path fill="#FFEE58" d="M320.515,310.039c-0.444,0.257-1.166,0.257-1.611,0s-0.445-0.674,0-0.931s1.167-0.257,1.611,0
					C320.96,309.365,320.96,309.782,320.515,310.039z"/>
				<path fill="#FFEE58" d="M304.622,304.581c-0.444,0.256-1.166,0.256-1.611,0c-0.445-0.258-0.445-0.674,0-0.932
					c0.445-0.256,1.167-0.256,1.611,0C305.067,303.907,305.067,304.323,304.622,304.581z"/>
				<path fill="#EF5350" d="M307.918,306.46c-0.445,0.257-1.167,0.257-1.611,0c-0.445-0.257-0.445-0.674,0-0.931
					c0.444-0.257,1.166-0.257,1.611,0S308.363,306.203,307.918,306.46z"/>
				<path fill="#FFEE58" d="M311.214,308.34c-0.445,0.257-1.167,0.257-1.612,0c-0.444-0.257-0.444-0.674,0-0.931
					c0.445-0.257,1.167-0.257,1.612,0C311.658,307.666,311.658,308.083,311.214,308.34z"/>
				<path fill="#EF5350" d="M314.509,310.22c-0.445,0.256-1.167,0.256-1.611,0c-0.445-0.258-0.445-0.674,0-0.932
					c0.444-0.256,1.166-0.256,1.611,0C314.954,309.546,314.954,309.962,314.509,310.22z"/>
				<path fill="#FFEE58" d="M317.804,312.099c-0.444,0.257-1.166,0.257-1.611,0s-0.445-0.674,0-0.931s1.167-0.257,1.611,0
					C318.249,311.425,318.249,311.842,317.804,312.099z"/>
				<g>
					
						<line fill="none" stroke="#FFFFFF" stroke-width="0.5202" stroke-linecap="round" stroke-linejoin="round" stroke-miterlimit="10" x1="276.092" y1="293.765" x2="292.789" y2="303.531"/>
					
						<line fill="none" stroke="#FFFFFF" stroke-width="0.5202" stroke-linecap="round" stroke-linejoin="round" stroke-miterlimit="10" x1="274.871" y1="294.735" x2="291.567" y2="304.503"/>
					
						<line fill="none" stroke="#FFFFFF" stroke-width="0.5202" stroke-linecap="round" stroke-linejoin="round" stroke-miterlimit="10" x1="273.649" y1="295.706" x2="290.346" y2="305.474"/>
				</g>
				<g>
					<path fill="#25284C" d="M267.515,294.752c0,0,6.215,6.611,6.618,13.184l-1.21,2.588l-2.502-1.826c0,0-1.775-8.636-5.004-11.219
						L267.515,294.752z"/>
					<path fill="#111638" d="M252.931,372.19c0,0-0.429,4.09,1.572,3.877c2.331-0.247,9.552-5.107,7.944-6.64
						c-1.608-1.532-7.634,1.24-7.634,1.24L252.931,372.19z"/>
					<path fill="#111638" d="M265.764,378.243c0,0-0.429,4.09,1.571,3.878c2.331-0.248,9.553-5.108,7.944-6.641
						c-1.607-1.531-7.634,1.241-7.634,1.241L265.764,378.243z"/>
					<rect x="259.649" y="276.286" fill="#FFFFFF" width="4.285" height="6.051"/>
					<path fill="#25284C" d="M268.497,308.91c0,0,6.893,15.731,1.715,69.727c-0.026,0.277-0.183,0.529-0.424,0.669
						c-0.907,0.521-3.195,1.445-4.377-1.604c-0.031-0.081-0.05-0.169-0.057-0.255l-4.49-56.557c-0.036-0.91-0.511-0.951-0.603-0.045
						l-2.756,51.71c-0.021,0.39-0.269,0.729-0.634,0.867c-1.207,0.453-3.851,0.979-4.344-2.821c0,0-4.682-55.937,0.786-63.521
						L268.497,308.91z"/>
					<path fill="#111638" d="M253.314,305.348c0.124,0.231,0.271,0.451,0.457,0.642c1.569,1.605,5.798,4.502,14.222,1.489
						c0.188-0.067,0.358-0.171,0.504-0.3v1.731c-0.146,0.129-0.315,0.232-0.504,0.3c-8.424,3.013-12.652,0.117-14.222-1.489
						c-0.187-0.19-0.333-0.41-0.457-0.642V305.348z"/>
					<path fill="#6A7EA2" d="M263.935,280.286l-4.285-0.975l-6.758-0.881c-1.654-0.218-2.845,2.177-2.963,4.74
						c-0.226,4.871,3.044,21.449,3.044,21.449c0.044,0.669,0.317,1.305,0.786,1.785c1.559,1.604,5.786,4.524,14.234,1.504
						c0.535-0.191,0.924-0.663,1.006-1.226l3.146-19.601c0.164-1.021-0.27-2.047-1.116-2.642L263.935,280.286z"/>
					<path fill="#FFFFFF" d="M269.266,268.677c0,0-0.52,5.854-2.938,8.854c-2.42,3-7.106-1.952-7.805-3.396
						c-0.699-1.444-1.829-10.492,5.439-10.492C268.678,263.643,269.506,266.573,269.266,268.677z"/>
					<path fill="#25284C" d="M262.262,272.321c0,0,2.442-1.729,3.351-4.673c0,0,0.535-0.321,3.51,2.175c0,0,3.356-0.009,1.797-3.548
						s-8.011-8.015-11.113-4.476c0,0-5.91-0.984-4.767,6.67c1.508,10.084,6.231,8.424,7.411,6.118
						C263.608,272.324,262.262,272.321,262.262,272.321z"/>
					<path fill="#FFFFFF" d="M263.786,271.138c0,0-0.979-1.928-1.785-0.777c-0.808,1.15,0.166,3.473,1.929,3.774L263.786,271.138z"
						/>
					<path fill="#FFFFFF" d="M299.199,305.601c0.062-0.02,0.644,0.882,1.072,1.563c0.125,0.198-0.096,0.432-0.3,0.318l-1.217-0.676
						c0,0,0.083,2.006-2.775,0.223l-0.067-1.947L299.199,305.601z"/>
					<path fill="#7B92B9" d="M296.513,305.015c0,0-17.824-10.126-19-4.205c-1.175,5.921,18.392,6.376,18.392,6.376
						S296.732,306.613,296.513,305.015z"/>
					<path fill="#7B92B9" d="M271.028,284.441c0,0,2.676,1.341,6.398,6.643c5.053,7.196,7.379,11.493,2.684,13.079
						c-1.188,0.401-9.391-8.202-9.391-8.202S267.384,288.83,271.028,284.441z"/>
					<path fill="#7B92B9" d="M264.801,280.794l-0.866-1.482c0,0-1.471-0.9-4.285-0.961l-1.023,0.873
						C258.626,279.224,258.844,280.241,264.801,280.794z"/>
				</g>
			</g>
			
				<linearGradient id="SVGID_36_" gradientUnits="userSpaceOnUse" x1="808.8145" y1="285.1826" x2="808.8145" y2="194.481" gradientTransform="matrix(-0.999 -0.0439 0.0439 -0.999 1270.3123 471.8511)">
				<stop  offset="0.0019" style="stop-color:#AC24B9"/>
				<stop  offset="1" style="stop-color:#2E2142"/>
			</linearGradient>
			<path fill="url(#SVGID_36_)" d="M457.644,172.286c3.53,9.574,16.656,21.852,27.445,17.252c5.337-2.274,8.244-9.752,4.674-14.323
				c-2.537-3.249-7.102-4.052-10.383-6.546c-2.933-2.229-4.654-5.651-6.876-8.59c-2.222-2.938-5.511-5.625-9.172-5.216
				c-7.672,0.856-7.689,11.443-5.885,16.865C457.51,171.913,457.575,172.1,457.644,172.286z"/>
		</g>
	</g>
</g>
<g id="Designed_by_Freepik">
</g>
</svg>
